#define squiggly_width  10
#define squiggly_height 20
static unsigned char squiggly_bits[] = {
 0x00,0xfc,0x00,0xfc,0x00,0xfc,0x00,0xfc,0x00,0xfc,0x00,0xfc,
 0x00,0xfc,0x00,0xfc,0x00,0xfc,0x00,0xfc,0x00,0xfc,0x00,0xfc,
 0x00,0xfc,0x00,0xfc,0x00,0xfc,0x00,0xfc,0x0e,0xfc,0x31,0xfe,
 0xc0,0xfd,0x00,0xfc};
